<svg width="53" height="36" viewBox="0 0 53 36" fill="none" xmlns="http://www.w3.org/2000/svg">
<path d="M51.782 31.5929V29.1729C51.782 28.7229 51.025 28.2929 49.666 27.9069L49.699 24.8929C49.699 20.2519 48.259 15.7229 45.573 11.9179C42.8775 8.10633 39.0781 5.21295 34.687 3.6279L34.59 3.0239C34.5397 2.70035 34.3981 2.39786 34.182 2.1519C33.9648 1.90498 33.6823 1.72439 33.367 1.6309C29.1461 0.403634 24.6629 0.403634 20.442 1.6309C20.125 1.7239 19.842 1.9039 19.624 2.1509C19.407 2.3969 19.264 2.6989 19.214 3.0229L19.121 3.5859C14.703 5.15606 10.8757 8.04842 8.159 11.8699C5.45559 15.6741 4.00214 20.2249 4 24.8919V27.9189C2.66 28.3039 1.913 28.7289 1.913 29.1749V31.5959C1.89135 31.738 1.92229 31.883 2 32.0039C2.66842 31.5098 3.43442 31.1638 4.247 30.9889C6.319 30.4889 8.426 30.1389 10.55 29.9429C11.1446 29.8764 11.7465 29.9362 12.3164 30.1183C12.8862 30.3005 13.4112 30.6009 13.857 30.9999C15.5037 32.4896 17.6454 33.314 19.866 33.3129H33.83C36.0505 33.3142 38.1921 32.4894 39.838 30.9989C40.283 30.5978 40.8077 30.2952 41.3778 30.111C41.9479 29.9267 42.5504 29.865 43.146 29.9299C45.269 30.1249 47.376 30.4729 49.448 30.9719C50.218 31.1179 50.946 31.4339 51.578 31.8959C51.613 31.9309 51.656 31.9619 51.686 31.9959C51.7648 31.8772 51.7989 31.7344 51.782 31.5929Z" fill="#FFF100"/>
<path d="M13.89 26.4981C13.8712 25.9406 13.8612 25.3829 13.86 24.8251C13.867 16.4091 15.852 8.86109 19.122 3.59009C14.7043 5.15972 10.8769 8.05135 8.16 11.8721C5.45662 15.6756 4.00285 20.2257 4 24.8921V27.9191C7.24769 27.1516 10.5576 26.6764 13.89 26.4991V26.4981Z" fill="url(#paint0_linear_20_431)"/>
<path d="M49.697 24.8921C49.7015 19.6302 47.8555 14.5343 44.482 10.4961C45.9458 15.129 46.6753 19.9625 46.644 24.8211C46.644 25.6411 46.622 26.4511 46.584 27.2561C47.6198 27.4154 48.646 27.6317 49.658 27.9041L49.697 24.8921Z" fill="url(#paint1_linear_20_431)"/>
<path d="M49.448 30.98C47.375 30.48 45.268 30.13 43.145 29.934C42.5499 29.8683 41.9475 29.929 41.3775 30.1122C40.8074 30.2954 40.2825 30.5969 39.837 30.997C38.1907 32.4873 36.0487 33.3118 33.828 33.31H19.87C17.6506 33.3108 15.51 32.4868 13.864 30.998C13.4193 30.5964 12.8947 30.2933 12.3245 30.1087C11.7544 29.9242 11.1517 29.8622 10.556 29.927C8.432 30.123 6.326 30.472 4.253 30.972C3.4415 31.1493 2.67631 31.4951 2.007 31.987C3.067 33.594 13.789 35.281 26.853 35.281C39.918 35.281 50.635 33.588 51.697 31.988C51.66 31.955 51.619 31.924 51.588 31.889C50.9482 31.4359 50.2183 31.1259 49.448 30.98Z" fill="url(#paint2_radial_20_431)"/>
<path d="M26.846 7.81812L21.5 16.8411L26.846 20.1291V7.81812Z" fill="#0A0A0A"/>
<path d="M26.848 7.82202V20.127L32.193 16.843L26.848 7.82202ZM26.848 21.915V26.205C26.948 26.063 32.193 18.625 32.193 18.622L26.848 21.915Z" fill="#4B4D4D"/>
<path d="M26.848 21.9159L21.502 18.6279L26.848 26.2079V21.9139V21.9159Z" fill="#0A0A0A"/>
<defs>
<linearGradient id="paint0_linear_20_431" x1="11.561" y1="27.9191" x2="11.561" y2="3.59009" gradientUnits="userSpaceOnUse">
<stop stop-color="#EDCF00"/>
<stop offset="0.33" stop-color="#F0D500"/>
<stop offset="0.77" stop-color="#F9E500"/>
<stop offset="1" stop-color="#FFF100"/>
</linearGradient>
<linearGradient id="paint1_linear_20_431" x1="47.089" y1="28.0961" x2="47.089" y2="10.4961" gradientUnits="userSpaceOnUse">
<stop stop-color="#EDCF00"/>
<stop offset="0.59" stop-color="#F7E100"/>
<stop offset="1" stop-color="#FFF100"/>
</linearGradient>
<radialGradient id="paint2_radial_20_431" cx="0" cy="0" r="1" gradientUnits="userSpaceOnUse" gradientTransform="translate(4.701 44.539) scale(18.5398 18.4136)">
<stop stop-color="#FFF100"/>
<stop offset="0.23" stop-color="#F9E500"/>
<stop offset="0.67" stop-color="#F0D500"/>
<stop offset="1" stop-color="#EDCF00"/>
</radialGradient>
</defs>
</svg>
