<svg width="32" height="32" viewBox="0 0 32 32" fill="none" xmlns="http://www.w3.org/2000/svg">
<rect width="32" height="32" rx="16" fill="#19181D"/>
<g clip-path="url(#clip0_498_819)">
<path d="M16.2931 6.3999L16.1643 6.83744V19.5328L16.2931 19.6613L22.186 16.1779L16.2931 6.3999Z" fill="#E6E6E6"/>
<path d="M16.293 6.3999L10.4 16.1779L16.293 19.6613V13.4993V6.3999Z" fill="white"/>
<path d="M16.2931 20.777L16.2205 20.8655V25.3878L16.2931 25.5997L22.1896 17.2954L16.2931 20.777Z" fill="#F5F5F5"/>
<path d="M16.2931 25.5997V20.777L10.4 17.2954L16.2931 25.5997Z" fill="white"/>
<path d="M16.2931 19.6615L22.186 16.1781L16.2931 13.4995V19.6615Z" fill="#D9D9D9"/>
<path d="M10.4 16.1781L16.2931 19.6615V13.4995L10.4 16.1781Z" fill="#E6E6E6"/>
</g>
<defs>
<clipPath id="clip0_498_819">
<rect width="11.7896" height="19.2" fill="white" transform="translate(10.4 6.3999)"/>
</clipPath>
</defs>
</svg>
